<svg xmlns="http://www.w3.org/2000/svg" viewBox="0 0 112.77913 158.32503"><defs><style>.cls-1{fill:none;stroke-miterlimit:10;stroke-width:7.98866px;}.cls-1,.cls-2{stroke:#000;}.cls-2{stroke-width:1.40608px;}</style></defs><g id="Capa_2" data-name="Capa 2"><g id="Logo_12" data-name="Logo 12"><path id="N" class="cls-1" d="M42.28091,169.88648l17.40369-124.61c.841-6.02151,3.16028-6.19971,4.06869-.31261l18.967,122.91868c.86206,5.58673,2.21928,5.48032,3.016-.23648L104.74315,31.272" transform="translate(-11.81161 -26.99716)"/><path d="M123.9596,115.11708,113.60319,47.52741c-.7261-4.73878-7.92839-2.72586-7.20631,1.98669l10.35641,67.58966c.7261,4.73879,7.92839,2.72587,7.20631-1.98668Z" transform="translate(-11.81161 -26.99716)"/><path d="M118.04582,112.37379l-22.09692-.30887c-4.81064-.06725-4.8128,7.406,0,7.47326l22.09692.30887c4.81065.06724,4.81281-7.406,0-7.47326Z" transform="translate(-11.81161 -26.99716)"/><path class="cls-2" d="M12.51465,106.15918q0-23.61768,8.96289-41.23242A64.72531,64.72531,0,0,1,47.63086,37.50781q17.18847-9.80712,41.65527-9.80761a91.43474,91.43474,0,0,1,19.08789,1.793,61.90955,61.90955,0,0,1,14.65821,4.95606v19.4043h-1.6875a49.99831,49.99831,0,0,0-14.44727-5.69434,77.29666,77.29666,0,0,0-17.61133-1.89844q-16.87645,0-29.42187,6.53809A44.85327,44.85327,0,0,0,40.46,72.625q-6.85547,13.28613-6.85449,33.53418,0,20.24853,6.85449,33.53516a44.83339,44.83339,0,0,0,19.4043,19.82617q12.54492,6.53906,29.42187,6.53808a77.29724,77.29724,0,0,0,17.61133-1.89843,50.02614,50.02614,0,0,0,14.44727-5.69434h1.6875v19.4043a61.77807,61.77807,0,0,1-14.65821,4.95605,91.4347,91.4347,0,0,1-19.08789,1.793q-24.46875,0-41.65527-9.38574a62.15466,62.15466,0,0,1-26.15332-26.99707Q12.51123,130.62891,12.51465,106.15918Z" transform="translate(-11.81161 -26.99716)"/><path class="cls-2" d="M88.45508,145.90625a23.29373,23.29373,0,0,1,2.13476-10.22852,16.24388,16.24388,0,0,1,6.11719-6.9082,19.316,19.316,0,0,1,18.92871,0,16.25021,16.25021,0,0,1,6.11719,6.9082,25.57413,25.57413,0,0,1,0,20.458,16.23622,16.23622,0,0,1-6.11719,6.90723,19.35974,19.35974,0,0,1-18.95508,0,16.29413,16.29413,0,0,1-6.09082-6.90723A23.298,23.298,0,0,1,88.45508,145.90625Zm5.27246,0a19.6548,19.6548,0,0,0,1.5293,8.19922,11.17976,11.17976,0,0,0,4.32324,5.0625,13.53834,13.53834,0,0,0,13.18262,0,11.19145,11.19145,0,0,0,4.32324-5.0625,22.74452,22.74452,0,0,0,0-16.39844,11.199,11.199,0,0,0-4.32324-5.06152,13.53157,13.53157,0,0,0-13.18262,0,11.18728,11.18728,0,0,0-4.32324,5.06152A19.66732,19.66732,0,0,0,93.72754,145.90625Z" transform="translate(-11.81161 -26.99716)"/></g></g></svg>